<svg version="1.1" id="Layer_1" xmlns="http://www.w3.org/2000/svg" xmlns:xlink="http://www.w3.org/1999/xlink" x="0px" y="0px" width="100%" viewBox="0 0 500 500" enable-background="new 0 0 500 500" xml:space="preserve">

<path fill="#8142D6" opacity="1.000000" stroke="none" d="
M183.000000,171.999603 
	C260.126343,171.999603 336.752716,171.999603 414.006592,171.999603 
	C414.006592,174.062683 414.006561,175.828522 414.006561,177.594360 
	C414.006561,252.913651 414.038544,328.232971 413.969818,403.552185 
	C413.960236,414.060791 411.804504,424.152069 402.628510,430.592377 
	C398.295441,433.633667 392.735321,436.720184 387.721954,436.735382 
	C274.244171,437.079407 160.765106,437.010712 47.286282,436.985229 
	C33.771370,436.982208 21.008286,423.377502 21.005423,409.102325 
	C20.993090,347.613800 21.000408,286.125275 21.000551,224.636749 
	C21.000593,207.324829 21.000559,190.012894 21.000559,171.999603 
	C75.009132,171.999603 128.754562,171.999603 183.000000,171.999603 
M255.603134,275.999969 
	C254.437286,276.000031 253.268234,275.943573 252.106079,276.009094 
	C242.665619,276.541138 237.575745,279.500824 237.944687,290.430969 
	C238.225449,298.748993 237.987701,307.084106 238.004196,315.411591 
	C238.019104,322.931763 241.960861,326.971375 249.342926,326.992828 
	C258.836212,327.020447 268.329681,327.021423 277.822937,326.992188 
	C284.611267,326.971283 288.825531,323.032501 288.953949,316.153778 
	C289.131104,306.663727 289.134155,297.165222 288.949860,287.675446 
	C288.825378,281.266418 286.352509,277.910126 279.802643,277.071991 
	C272.140564,276.091461 264.325775,276.304657 255.603134,275.999969 
M288.165894,241.359268 
	C288.408783,240.936844 288.860748,240.515945 288.863831,240.091782 
	C288.935974,230.103653 289.262665,220.103912 288.891968,210.130478 
	C288.618347,202.769913 284.088531,199.030228 276.701813,199.006714 
	C267.876190,198.978607 259.050354,198.974991 250.224777,199.007523 
	C242.318054,199.036652 238.048538,203.246750 238.010391,211.079788 
	C237.967407,219.905273 237.982681,228.731186 238.005798,237.556824 
	C238.026291,245.381317 242.157166,249.803925 249.996536,249.957977 
	C258.985291,250.134613 267.988617,250.231995 276.969116,249.907944 
	C282.023163,249.725571 286.778534,248.248672 288.165894,241.359268 
M60.001320,207.990936 
	C60.001022,218.474304 60.122944,228.959702 59.948589,239.440170 
	C59.862103,244.638901 61.733967,248.653259 67.024193,248.926483 
	C78.362030,249.512039 89.792419,250.041199 101.081924,249.204300 
	C108.352074,248.665359 109.999313,245.311508 109.999962,237.888672 
	C110.000793,228.403717 110.013756,218.918747 109.995239,209.433838 
	C109.982384,202.847458 106.328110,199.087296 99.635338,199.024368 
	C89.818451,198.932053 79.999489,198.937576 70.182526,199.025833 
	C64.799881,199.074219 61.651653,201.696808 60.001320,207.990936 
M376.597198,321.822754 
	C377.063354,320.444885 377.919495,319.071045 377.933807,317.688507 
	C378.045593,306.882935 378.205078,296.069580 377.890930,285.272003 
	C377.768127,281.051727 375.109802,277.414825 370.748138,277.125946 
	C359.883698,276.406494 348.915588,275.558960 338.104187,276.345337 
	C331.243896,276.844299 327.646118,278.047150 327.939362,288.237946 
	C328.221344,298.039062 327.943909,307.855042 328.022949,317.663605 
	C328.066956,323.123016 331.868347,326.939117 337.297821,326.977509 
	C347.771515,327.051636 358.246124,326.995056 368.720337,327.001282 
	C372.125977,327.003326 374.848206,325.936890 376.597198,321.822754 
M150.895035,280.651031 
	C150.263229,282.789795 149.127670,284.918762 149.085709,287.069031 
	C148.891037,297.044006 148.973068,307.024994 149.009216,317.003632 
	C149.032394,323.404419 152.666473,326.973358 159.151489,326.992065 
	C168.963867,327.020355 178.776413,327.013733 188.588821,326.994659 
	C195.408859,326.981415 198.975525,323.484344 198.992813,316.768280 
	C199.018921,306.623291 199.010513,296.478119 198.995300,286.333069 
	C198.987671,281.246918 196.618042,277.481476 191.672455,277.131744 
	C180.809937,276.363617 169.888565,276.122040 158.999207,276.266663 
	C156.458939,276.300415 153.950562,278.732697 150.895035,280.651031 
M60.000977,292.547852 
	C60.000820,300.702698 59.973408,308.857666 60.009354,317.012360 
	C60.036766,323.230347 63.613785,326.952484 69.671074,326.985046 
	C79.656311,327.038757 89.642487,327.055634 99.627411,326.978088 
	C105.520065,326.932343 109.901886,322.731506 109.966599,316.940338 
	C110.081886,306.623230 110.133392,296.301422 109.939217,285.986694 
	C109.849968,281.245941 107.313843,277.515442 102.452629,277.104614 
	C93.583206,276.355042 84.650291,276.003723 75.748192,276.069580 
	C58.816986,276.194855 59.435074,280.863892 60.000977,292.547852 
M238.201797,396.628937 
	C240.219284,402.527222 244.357788,404.396942 250.466293,404.107758 
	C259.441742,403.682861 268.466980,403.679810 277.443329,404.094696 
	C285.283722,404.457031 288.345764,400.967316 288.851440,393.203674 
	C289.467285,383.748474 289.137543,374.219788 288.949768,364.728210 
	C288.819000,358.117950 284.210663,354.015015 277.441711,354.003815 
	C268.279602,353.988647 259.117432,353.993927 249.955276,354.001831 
	C242.397369,354.008362 238.065125,358.218903 238.018280,365.798004 
	C237.956528,375.792450 238.022949,385.787689 238.201797,396.628937 
M377.970001,241.761139 
	C377.980164,231.265030 378.008881,220.768906 377.993591,210.272842 
	C377.984253,203.874374 373.913574,199.233307 367.517365,199.071487 
	C357.527344,198.818726 347.509827,198.660278 337.536133,199.136108 
	C331.828003,199.408463 327.601837,203.340317 327.878967,209.279404 
	C328.328949,218.921616 327.999054,228.600159 328.000488,238.263367 
	C328.001709,246.529694 331.263947,249.894974 339.612823,249.980438 
	C348.108887,250.067429 356.606659,249.974014 365.103485,250.008850 
	C370.819092,250.032272 375.284088,247.992752 377.970001,241.761139 
M195.906693,247.559006 
	C198.533646,244.747223 199.175293,241.451569 199.078506,237.629898 
	C198.838455,228.152252 198.657822,218.647598 199.123154,209.186752 
	C199.420151,203.148270 194.621674,199.270096 189.384537,199.098068 
	C179.412430,198.770477 169.418228,198.840622 159.440399,199.065079 
	C153.372955,199.201553 149.085281,203.488113 149.029816,209.091553 
	C148.927719,219.406189 148.853943,229.725586 149.066452,240.036850 
	C149.163559,244.748474 151.651184,248.521210 156.563965,248.897980 
	C165.934006,249.616547 175.354904,249.882980 184.754974,249.889328 
	C188.234283,249.891678 191.714432,248.634109 195.906693,247.559006 
M89.494011,403.998108 
	C92.992706,403.998291 96.491402,404.001831 99.990089,403.997803 
	C106.293930,403.990540 109.963356,400.367584 109.989464,393.995056 
	C110.029747,384.165527 110.012634,374.335663 109.995689,364.506012 
	C109.983955,357.702301 106.638870,354.122833 99.819923,354.034943 
	C89.658707,353.903961 79.494171,353.948761 69.331795,354.021393 
	C63.855938,354.060547 60.057655,357.863617 60.021442,363.344696 
	C59.951000,374.006958 59.968594,384.670166 60.014530,395.332672 
	C60.037086,400.567444 63.601662,403.965057 69.003693,403.991516 
	C75.501129,404.023315 81.998840,403.998444 89.494011,403.998108 
M198.999573,367.628784 
	C200.208130,356.301086 194.203751,353.606598 185.454895,353.931732 
	C176.983154,354.246552 168.490387,353.968781 160.007141,354.009888 
	C153.228699,354.042725 149.040161,358.189545 149.010544,364.913605 
	C148.968033,374.561218 148.977997,384.209290 149.007217,393.857025 
	C149.026855,400.344208 152.595657,403.967377 159.007767,403.989502 
	C168.988174,404.023926 178.968781,404.001770 188.949310,403.997559 
	C195.313538,403.994873 198.961121,400.416809 198.990112,394.047089 
	C199.028732,385.563812 198.999603,377.080231 198.999573,367.628784 
z" data-index="1" style="opacity: 1;"></path>
<path fill="#8142D6" opacity="1.000000" stroke="none" d="
M210.836182,142.388077 
	C213.496536,142.770950 215.832321,142.737320 218.125717,143.032745 
	C222.001617,143.532028 223.822815,141.477661 223.900269,138.063248 
	C223.983078,134.413116 221.436905,133.466949 218.086990,132.876328 
	C213.349289,132.041031 208.433517,131.005569 204.180496,128.881195 
	C195.055740,124.323402 189.294296,113.416145 190.444168,104.236267 
	C224.158096,104.236267 257.901642,104.236267 291.666718,104.236267 
	C292.177124,120.928589 300.101410,132.822617 314.802307,139.739639 
	C319.492340,141.946381 325.177490,142.203049 330.466370,142.910904 
	C333.692627,143.342682 336.387482,141.186005 335.711182,138.112778 
	C335.270447,136.109955 332.313873,133.384705 330.292999,133.211151 
	C316.360046,132.014755 305.850800,124.570656 302.567230,111.039917 
	C302.070435,108.992599 302.077942,106.822899 301.776398,104.000694 
	C303.939697,104.000694 305.708679,104.000694 307.477692,104.000694 
	C332.641113,104.000687 357.811371,104.350838 382.965210,103.859360 
	C396.418488,103.596497 412.168549,113.606361 413.009216,130.153732 
	C413.519836,140.203918 413.975616,150.256897 414.473145,160.667511 
	C283.001831,160.667511 152.294006,160.667511 20.100189,160.667511 
	C21.065687,147.951309 21.268074,135.253418 23.216175,122.829262 
	C24.751190,113.039597 38.141605,103.630737 49.034378,103.972473 
	C54.171680,104.133636 59.318222,104.000099 64.605957,104.000099 
	C66.198624,113.856239 68.512047,122.870964 75.607880,130.323486 
	C83.260101,138.360382 92.160057,142.854309 103.083809,142.766800 
	C105.032814,142.751175 106.957466,139.696625 108.893356,138.045258 
	C106.985954,136.363800 105.166290,133.351028 103.156822,133.218597 
	C90.833199,132.406509 79.604752,123.907005 76.864044,112.399307 
	C76.266479,109.890282 76.088348,107.281357 75.661324,104.333824 
	C110.611328,104.333824 145.011581,104.333824 179.800797,104.333824 
	C179.668472,115.763283 184.290161,125.247414 192.504929,132.894669 
	C197.558075,137.598709 203.478134,141.032913 210.836182,142.388077 
z" data-index="2"></path>
<path fill="#8142D6" opacity="1.000000" stroke="none" d="
M414.009033,436.985840 
	C413.825836,435.728851 413.603912,434.076477 414.325165,433.298889 
	C421.169037,425.920105 423.927429,416.960480 423.941620,407.244385 
	C424.049164,333.597595 424.000458,259.950592 424.000519,186.303650 
	C424.000519,184.528473 424.000549,182.753311 424.000549,180.978134 
	C424.321167,180.911758 424.641815,180.845367 424.962433,180.778992 
	C426.303619,185.510056 427.806519,190.202255 428.954834,194.979675 
	C432.073151,207.953079 434.908844,220.995148 438.096161,233.951065 
	C444.966400,261.877777 452.056854,289.750336 458.925568,317.677399 
	C465.598999,344.810669 472.266113,371.947723 478.576508,399.166443 
	C480.129211,405.863647 482.717346,412.663910 479.712433,419.847687 
	C475.685028,429.475922 462.902893,437.166962 453.896729,437.045410 
	C440.735931,436.867798 427.571014,436.997498 414.009033,436.985840 
z" data-index="3"></path>
<path fill="#8142D6" opacity="1.000000" stroke="none" d="
M304.816681,73.702240 
	C313.689667,66.468292 323.623444,64.152100 334.507477,64.984726 
	C345.371399,65.815811 354.218231,70.424454 360.966797,78.943390 
	C364.367218,83.235802 368.359955,87.324089 367.898987,93.996048 
	C364.925293,93.996048 362.044159,94.401939 359.354126,93.859741 
	C357.416077,93.469124 355.015839,92.251549 354.046143,90.657845 
	C344.040588,74.213326 321.509216,71.260582 309.158813,87.938309 
	C304.291290,94.511269 299.467651,94.140442 292.947083,93.749878 
	C293.150116,84.753601 299.018158,79.449913 304.816681,73.702240 
z" data-index="4"></path>
<path fill="#8142D6" opacity="1.000000" stroke="none" d="
M241.220612,71.713943 
	C248.951920,77.354286 254.720413,83.858795 256.416534,93.996567 
	C254.101578,93.996567 252.442261,93.801208 250.845016,94.033264 
	C246.092010,94.723854 243.527145,92.720062 240.648361,88.720810 
	C230.044174,73.989449 209.254013,71.761024 197.178329,87.911461 
	C192.332642,94.392235 187.553482,94.282616 180.604187,93.638992 
	C182.665848,82.641663 189.322250,75.069435 198.241882,70.106888 
	C212.433533,62.211170 226.988052,62.558331 241.220612,71.713943 
z" data-index="5"></path>
<path fill="#8142D6" opacity="1.000000" stroke="none" d="
M84.070374,69.987350 
	C98.670830,61.986633 113.054260,62.794266 126.244537,71.384254 
	C133.893524,76.365562 140.380783,83.528709 142.307449,93.996384 
	C138.733826,93.996384 135.752289,93.849037 132.792953,94.041962 
	C130.326614,94.202751 129.172043,93.240021 127.925217,91.064262 
	C119.840843,76.956711 100.518661,71.186646 85.072762,84.497383 
	C84.599426,84.905289 84.235298,85.516983 83.993546,86.104927 
	C80.569420,94.432320 73.936974,95.245941 65.884880,93.502594 
	C68.147835,82.922546 75.268524,76.008080 84.070374,69.987350 
z" data-index="6"></path>

<path fill="#000000" opacity="1.000000" stroke="none" d="
M288.089569,241.773727 
	C286.778534,248.248672 282.023163,249.725571 276.969116,249.907944 
	C267.988617,250.231995 258.985291,250.134613 249.996536,249.957977 
	C242.157166,249.803925 238.026291,245.381317 238.005798,237.556824 
	C237.982681,228.731186 237.967407,219.905273 238.010391,211.079788 
	C238.048538,203.246750 242.318054,199.036652 250.224777,199.007523 
	C259.050354,198.974991 267.876190,198.978607 276.701813,199.006714 
	C284.088531,199.030228 288.618347,202.769913 288.891968,210.130478 
	C289.262665,220.103912 288.935974,230.103653 288.863831,240.091782 
	C288.860748,240.515945 288.408783,240.936844 288.089569,241.773727 
z" data-index="8" style="opacity: 1; visibility: hidden;"></path>

<path fill="#000000" opacity="1.000000" stroke="none" d="
M376.324799,322.123779 
	C374.848206,325.936890 372.125977,327.003326 368.720337,327.001282 
	C358.246124,326.995056 347.771515,327.051636 337.297821,326.977509 
	C331.868347,326.939117 328.066956,323.123016 328.022949,317.663605 
	C327.943909,307.855042 328.221344,298.039062 327.939362,288.237946 
	C327.646118,278.047150 331.243896,276.844299 338.104187,276.345337 
	C348.915588,275.558960 359.883698,276.406494 370.748138,277.125946 
	C375.109802,277.414825 377.768127,281.051727 377.890930,285.272003 
	C378.205078,296.069580 378.045593,306.882935 377.933807,317.688507 
	C377.919495,319.071045 377.063354,320.444885 376.324799,322.123779 
z" data-index="10" style="opacity: 1; visibility: hidden;"></path>

<path fill="#000000" opacity="1.000000" stroke="none" d="
M60.000977,292.058044 
	C59.435074,280.863892 58.816986,276.194855 75.748192,276.069580 
	C84.650291,276.003723 93.583206,276.355042 102.452629,277.104614 
	C107.313843,277.515442 109.849968,281.245941 109.939217,285.986694 
	C110.133392,296.301422 110.081886,306.623230 109.966599,316.940338 
	C109.901886,322.731506 105.520065,326.932343 99.627411,326.978088 
	C89.642487,327.055634 79.656311,327.038757 69.671074,326.985046 
	C63.613785,326.952484 60.036766,323.230347 60.009354,317.012360 
	C59.973408,308.857666 60.000820,300.702698 60.000977,292.058044 
z" data-index="12" style="opacity: 1; visibility: hidden;"></path>

<path fill="#000000" opacity="1.000000" stroke="none" d="
M377.895081,242.180511 
	C375.284088,247.992752 370.819092,250.032272 365.103485,250.008850 
	C356.606659,249.974014 348.108887,250.067429 339.612823,249.980438 
	C331.263947,249.894974 328.001709,246.529694 328.000488,238.263367 
	C327.999054,228.600159 328.328949,218.921616 327.878967,209.279404 
	C327.601837,203.340317 331.828003,199.408463 337.536133,199.136108 
	C347.509827,198.660278 357.527344,198.818726 367.517365,199.071487 
	C373.913574,199.233307 377.984253,203.874374 377.993591,210.272842 
	C378.008881,220.768906 377.980164,231.265030 377.895081,242.180511 
z" data-index="14" style="opacity: 1; visibility: hidden;"></path>

<path fill="#000000" opacity="1.000000" stroke="none" d="
M88.995224,403.998108 
	C81.998840,403.998444 75.501129,404.023315 69.003693,403.991516 
	C63.601662,403.965057 60.037086,400.567444 60.014530,395.332672 
	C59.968594,384.670166 59.951000,374.006958 60.021442,363.344696 
	C60.057655,357.863617 63.855938,354.060547 69.331795,354.021393 
	C79.494171,353.948761 89.658707,353.903961 99.819923,354.034943 
	C106.638870,354.122833 109.983955,357.702301 109.995689,364.506012 
	C110.012634,374.335663 110.029747,384.165527 109.989464,393.995056 
	C109.963356,400.367584 106.293930,403.990540 99.990089,403.997803 
	C96.491402,404.001831 92.992706,403.998291 88.995224,403.998108 
z" data-index="16" style="opacity: 1; visibility: hidden;"></path>

</svg>