<svg version="1.1" id="Layer_1" xmlns="http://www.w3.org/2000/svg" xmlns:xlink="http://www.w3.org/1999/xlink" x="0px" y="0px" width="100%" viewBox="0 0 1075 694" enable-background="new 0 0 1075 694" xml:space="preserve">

<path fill="#8142D6" opacity="1.000000" stroke="none" d="
M1.000000,545.464661 
	C8.474033,545.000000 15.948068,545.000000 23.855408,545.000000 
	C29.374416,586.888672 34.855618,628.490356 40.336819,670.092041 
	C40.653389,670.167847 40.969955,670.243652 41.286526,670.319458 
	C50.011868,628.706360 58.737209,587.093323 67.561569,545.007996 
	C76.171158,545.007996 84.972580,544.889221 93.762222,545.156982 
	C94.872185,545.190796 96.619545,547.106323 96.894737,548.400269 
	C103.698090,580.390991 110.334396,612.417175 117.020775,644.432800 
	C118.793648,652.921631 120.633507,661.396545 123.485680,669.820618 
	C128.957611,628.337402 134.429550,586.854248 139.915405,545.265625 
	C147.783417,545.265625 155.203506,545.265625 163.462662,545.265625 
	C155.782135,594.613281 148.161057,643.579041 140.470398,692.991821 
	C129.899094,692.991821 119.106819,693.093994 108.322968,692.839478 
	C107.199333,692.812988 105.409271,690.819885 105.136040,689.490906 
	C100.975883,669.255981 96.956627,648.991333 93.029434,628.709473 
	C89.530357,610.638672 86.190483,592.536987 82.735756,574.457520 
	C82.663681,574.080322 82.048683,573.806824 81.536987,573.351562 
	C73.634071,613.276306 65.762947,653.040466 57.889198,692.817871 
	C46.130608,692.817871 34.843178,692.817871 23.091328,692.817871 
	C20.375868,674.335632 17.806677,655.941284 14.939813,637.593567 
	C12.119719,619.545166 8.922177,601.555908 6.043403,583.516357 
	C4.807874,575.773987 3.978110,567.967224 2.895108,560.199341 
	C2.818203,559.647705 2.172356,559.175415 1.395528,558.833130 
	C1.000000,554.643127 1.000000,550.286194 1.000000,545.464661 
z" data-index="1" style="opacity: 1;"></path>
<path fill="#8142D6" opacity="1.000000" stroke="none" d="
M785.468628,695.000000 
	C784.701355,694.363892 784.531494,693.284851 784.085632,693.155151 
	C759.950562,686.138123 747.991394,669.714661 745.886719,645.027527 
	C744.704651,631.162659 747.154724,618.365723 755.063782,606.991211 
	C764.919739,592.816711 778.884766,585.725342 796.093811,585.007202 
	C805.856934,584.599792 815.368347,584.902771 824.760864,588.769287 
	C838.061890,594.244873 846.657776,603.712646 852.035217,616.684570 
	C855.980713,626.202332 856.473206,636.112732 855.799805,646.830322 
	C826.646667,646.830322 797.442383,646.830322 768.151978,646.830322 
	C770.692566,664.247070 781.124512,674.217163 795.945312,675.793091 
	C814.149780,677.728882 828.199707,673.384460 832.569519,659.141968 
	C839.837708,659.141968 847.143921,659.141968 854.803955,659.141968 
	C852.545105,675.751831 842.000061,684.938904 827.725586,690.970520 
	C824.942261,692.146667 822.131653,693.258301 819.666809,694.699829 
	C808.645752,695.000000 797.291565,695.000000 785.468628,695.000000 
M831.939697,625.963074 
	C829.082764,620.938477 827.103577,615.055298 823.194885,611.059509 
	C813.660889,601.313110 793.440674,602.134888 784.141785,607.946350 
	C776.007996,613.029663 770.320435,619.671875 768.800598,629.992065 
	C789.333740,629.992065 809.457275,630.028992 829.579041,629.858215 
	C830.390930,629.851318 831.186218,627.881042 831.939697,625.963074 
z" data-index="2" style="opacity: 1;"></path>
<path fill="#8142D6" opacity="1.000000" stroke="none" d="
M220.468658,695.000000 
	C219.701309,694.363892 219.531418,693.284912 219.085526,693.155151 
	C194.950485,686.138062 182.991394,669.714539 180.886719,645.027344 
	C179.704697,631.162476 182.154877,618.365662 190.063782,606.991089 
	C199.919693,592.816345 213.884964,585.725464 231.093872,585.007202 
	C240.857056,584.599731 250.368439,584.903076 259.760956,588.769409 
	C273.062042,594.244812 281.657867,603.712646 287.035217,616.684570 
	C290.980743,626.202271 291.473419,636.112671 290.799591,646.830444 
	C261.646545,646.830444 232.442352,646.830444 203.151978,646.830444 
	C205.692856,664.247681 216.124802,674.217285 230.945343,675.793091 
	C249.150528,677.728943 263.200134,673.383850 267.569458,659.141968 
	C274.837738,659.141968 282.143982,659.141968 289.803986,659.141968 
	C287.545013,675.751709 277.000244,684.938904 262.725647,690.970459 
	C259.942230,692.146545 257.131653,693.258423 254.666809,694.699951 
	C243.645767,695.000000 232.291550,695.000000 220.468658,695.000000 
M255.965256,609.541260 
	C244.074234,601.281982 231.619904,601.870361 219.342163,608.060974 
	C210.707336,612.414795 205.276764,619.623230 203.933319,629.682983 
	C225.316467,629.682983 246.068512,629.682983 267.284943,629.682983 
	C266.001312,621.528931 263.440155,614.616516 255.965256,609.541260 
z" data-index="3" style="opacity: 1;"></path>
<path fill="#8142D6" opacity="1.000000" stroke="none" d="
M1036.468628,695.000000 
	C1035.153320,694.032715 1034.495972,692.649658 1033.429810,692.164307 
	C1025.209839,688.422302 1021.332153,681.679382 1021.084900,673.114197 
	C1020.486572,652.389160 1020.331238,631.651245 1020.004395,610.918396 
	C1019.976135,609.126709 1020.000610,607.334167 1020.000610,605.190918 
	C1011.659180,605.190918 1003.729980,605.190918 995.400940,605.190918 
	C995.400940,598.799988 995.400940,592.743103 995.400940,585.995728 
	C1000.898865,585.995728 1006.650940,586.003784 1012.403015,585.993530 
	C1018.731995,585.982300 1019.979309,584.781250 1019.994141,578.596863 
	C1020.014832,569.962769 1019.999329,561.328552 1019.999329,552.348267 
	C1027.643066,552.348267 1035.021362,552.348267 1042.923706,552.348267 
	C1042.923706,563.409302 1042.923706,574.460388 1042.923706,586.462585 
	C1054.007690,586.462585 1064.582275,586.462585 1075.578491,586.231323 
	C1076.000000,592.021179 1076.000000,598.042297 1075.531372,604.531494 
	C1064.472290,604.999573 1053.881836,604.999573 1043.005981,604.999573 
	C1043.005981,624.960632 1042.968506,644.257812 1043.056519,663.554321 
	C1043.066772,665.802795 1043.428223,668.179321 1044.229614,670.264893 
	C1045.502197,673.576538 1047.360474,676.375000 1051.769531,676.056641 
	C1055.654053,675.776123 1059.574829,675.997986 1064.000000,675.997986 
	C1064.000000,681.832214 1064.000000,688.416138 1064.000000,695.000000 
	C1054.979126,695.000000 1045.958130,695.000000 1036.468628,695.000000 
z" data-index="4" style="opacity: 1;"></path>
<path fill="#8142D6" opacity="1.000000" stroke="none" d="
M471.468658,695.000000 
	C470.151123,694.032349 469.491364,692.651611 468.423340,692.162659 
	C460.207336,688.401245 456.215607,681.659546 456.100159,673.077087 
	C455.798584,650.659180 455.998535,628.234558 455.998535,605.267456 
	C446.809479,605.267456 438.745453,605.267456 430.345276,605.267456 
	C430.345276,598.677246 430.345276,592.618164 430.345276,585.994080 
	C435.891449,585.994080 441.499268,585.999878 447.107086,585.992554 
	C453.934052,585.983643 454.992737,584.895813 454.997864,577.876221 
	C455.004059,569.421326 454.999359,560.966370 454.999359,552.258240 
	C462.715546,552.258240 469.982208,552.258240 477.787231,552.258240 
	C477.787231,563.260559 477.787231,574.322693 477.787231,586.041626 
	C487.235809,586.041626 496.172028,586.259888 505.089874,585.949951 
	C509.579285,585.793945 511.554382,586.935120 511.082367,591.764587 
	C510.679901,595.882385 510.999237,600.070679 510.999237,604.771179 
	C500.100006,604.771179 489.372650,604.771179 478.000702,604.771179 
	C478.000702,607.070129 478.000671,608.834045 478.000671,610.597900 
	C478.000610,626.759766 477.939301,642.922119 478.047821,659.083252 
	C478.071930,662.671265 478.256958,666.370789 479.163177,669.809387 
	C480.107086,673.390686 482.140167,676.376892 486.803223,676.050720 
	C490.537476,675.789612 494.304535,675.997986 498.616760,675.997986 
	C498.616760,681.450745 498.616760,687.789001 498.808380,694.563599 
	C489.979095,695.000000 480.958221,695.000000 471.468658,695.000000 
z" data-index="5"></path>

<path fill="#8142D6" opacity="1.000000" stroke="none" d="
M629.531372,0.999997 
	C630.606262,1.683284 631.080566,2.697926 631.838684,2.999773 
	C641.891602,7.002325 648.933289,14.203373 653.808044,23.651316 
	C654.665161,25.312523 654.853027,27.318987 655.567688,29.975334 
	C651.431580,29.975334 647.985718,30.245373 644.621521,29.839226 
	C643.319885,29.682081 641.778503,28.232010 641.065979,26.965956 
	C630.928528,8.953628 606.046875,8.027033 594.530090,25.882908 
	C591.488464,30.598703 591.405090,30.544922 580.301270,29.713804 
	C579.122375,23.143826 583.580444,18.978434 587.039795,14.536494 
	C591.879517,8.322009 598.911743,5.080339 605.338806,1.266976 
	C613.020935,1.000000 621.041809,1.000000 629.531372,0.999997 
z" data-index="7"></path>
<path fill="#8142D6" opacity="1.000000" stroke="none" d="
M517.531372,0.999995 
	C518.609802,1.683738 519.087158,2.687550 519.849304,3.002785 
	C529.772095,7.106872 537.109436,13.964569 541.777771,23.595512 
	C542.636719,25.367638 542.787720,27.482952 543.401489,29.996601 
	C540.601990,29.996601 538.598633,29.761456 536.672058,30.046057 
	C532.783081,30.620548 530.261108,29.110382 528.236450,25.829287 
	C522.816711,17.046476 514.754517,12.838603 504.492340,13.027592 
	C495.897217,13.185881 488.205811,16.806297 484.113098,23.890999 
	C479.903137,31.178717 474.443787,30.111359 467.616150,29.745266 
	C468.207794,27.421165 468.339478,25.249992 469.273621,23.509501 
	C474.353424,14.044804 481.265503,6.496640 491.799957,2.941834 
	C492.506866,2.703289 493.060059,2.009250 493.342346,1.263530 
	C501.020905,1.000000 509.041840,1.000000 517.531372,0.999995 
z" data-index="8"></path>
<path fill="#8142D6" opacity="1.000000" stroke="none" d="
M402.531372,1.000002 
	C403.612854,1.677785 404.095856,2.676864 404.858124,2.984938 
	C415.585205,7.320165 423.240326,14.827084 428.058533,25.272499 
	C428.641083,26.535429 428.834869,27.977701 429.388733,29.990721 
	C425.355530,29.990721 421.891968,30.182896 418.471558,29.883137 
	C417.324127,29.782576 415.809875,28.671047 415.270905,27.610983 
	C408.236115,13.775002 388.231964,6.881210 372.568909,20.120966 
	C371.959137,20.636393 371.333344,21.276121 371.032135,21.991463 
	C367.587494,30.172039 361.153107,31.457222 352.214050,29.279617 
	C354.577332,24.886858 356.316864,20.140371 359.320343,16.412153 
	C364.289368,10.244154 370.138245,4.837108 378.273315,2.841820 
	C378.815979,2.708721 379.213776,1.984976 379.339478,1.267976 
	C386.687592,1.000000 394.375153,1.000000 402.531372,1.000002 
z" data-index="9"></path>
<path fill="#8142D6" opacity="1.000000" stroke="none" d="
M701.006531,124.003036 
	C701.006531,196.155579 701.042236,267.808990 700.967773,339.462311 
	C700.956665,350.148834 698.722778,360.369812 689.335083,366.878784 
	C685.110474,369.807922 679.695190,372.733490 674.811829,372.747528 
	C561.333801,373.073914 447.854645,373.009308 334.375671,372.987061 
	C320.849670,372.984406 308.011688,359.406189 308.006500,345.191711 
	C307.989471,298.533691 308.000366,251.875671 308.000488,205.217651 
	C308.000549,173.066711 308.000519,140.915771 308.000519,108.382416 
	C438.907074,108.382416 569.611389,108.382416 701.006531,108.382416 
	C701.006531,113.319183 701.006531,118.411537 701.006531,124.003036 
M548.502991,262.999481 
	C553.998474,262.999481 559.494080,263.028290 564.989319,262.992035 
	C571.433167,262.949524 575.780396,259.021423 575.936584,252.488617 
	C576.167297,242.835449 576.152466,233.169250 575.940613,223.515228 
	C575.802551,217.218231 573.313904,213.741119 566.646729,213.086472 
	C556.476379,212.087845 546.132568,211.657928 535.953125,212.340179 
	C528.219971,212.858475 525.104980,216.853790 525.032227,223.109467 
	C524.916016,233.099854 524.919800,243.093567 525.041321,253.083832 
	C525.090393,257.112823 526.790833,260.933655 530.857117,261.720306 
	C536.285828,262.770569 541.945129,262.629120 548.502991,262.999481 
M569.791626,184.666504 
	C574.469727,182.783661 575.730286,178.560852 575.890808,174.317703 
	C576.236755,165.171234 576.170654,155.998413 575.945374,146.844437 
	C575.752747,139.016678 571.317444,135.020432 563.417358,135.004303 
	C554.424377,134.985947 545.430725,134.932098 536.438660,135.022568 
	C529.496033,135.092407 525.100464,139.445984 525.026428,146.369232 
	C524.924988,155.860748 524.947693,165.354599 525.022644,174.846603 
	C525.063171,179.977783 527.352539,183.826965 532.559021,184.905396 
	C536.378662,185.696548 540.373718,185.992340 544.281677,185.932220 
	C552.529175,185.805283 560.770935,185.300232 569.791626,184.666504 
M357.026611,185.993073 
	C366.012543,185.995346 374.998688,186.040543 383.984314,185.988098 
	C393.404175,185.933121 396.999878,182.337585 397.000092,173.133026 
	C397.000305,163.814285 397.018921,154.495514 396.993134,145.176834 
	C396.976257,139.082062 393.465118,135.167755 387.375702,135.054276 
	C377.228455,134.865204 367.070862,134.825455 356.926086,135.071762 
	C351.442108,135.204895 346.499695,139.312241 346.859558,145.367722 
	C347.401581,154.487839 347.001190,163.663986 347.000793,172.816315 
	C347.000397,182.258545 347.236877,182.598923 357.026611,185.993073 
M485.999756,223.737854 
	C487.010010,217.854752 483.701935,213.402496 477.596252,213.010208 
	C466.882538,212.321869 456.069885,211.786789 445.386597,212.501541 
	C438.312714,212.974808 436.002380,217.093582 436.000214,224.459274 
	C435.997406,234.125381 435.954742,243.791794 436.017029,253.457504 
	C436.054230,259.233154 439.820282,262.953583 445.639618,262.984253 
	C455.805389,263.037872 465.971832,263.028839 476.137756,262.988495 
	C482.255676,262.964203 485.958374,259.281799 485.987549,253.184113 
	C486.032990,243.684875 485.999634,234.185272 485.999756,223.737854 
M664.791565,255.645248 
	C664.860474,244.348007 665.079712,233.048691 664.924072,221.754547 
	C664.862000,217.251251 662.298706,213.458527 657.734924,213.137238 
	C646.877502,212.372849 635.907654,211.557312 625.098816,212.345917 
	C618.228577,212.847168 614.643188,214.058304 614.939880,224.239822 
	C615.220581,233.872711 614.966492,243.520370 615.012390,253.161209 
	C615.041321,259.234772 618.749268,262.959564 624.789673,262.987549 
	C634.430542,263.032196 644.079163,262.772949 653.709839,263.088379 
	C659.087891,263.264526 662.570190,261.411591 664.791565,255.645248 
M396.999908,229.546509 
	C396.999939,227.715881 397.002319,225.885269 396.999542,224.054642 
	C396.989166,217.250153 394.859467,213.437057 388.114685,212.832703 
	C377.600830,211.890640 366.879456,211.563156 356.393707,212.547882 
	C348.006165,213.335587 347.001251,215.811539 347.000977,224.498215 
	C347.000671,233.984131 346.975525,243.470139 347.009186,252.955933 
	C347.032104,259.406647 350.624146,262.970917 357.113281,262.991974 
	C366.599091,263.022736 376.085114,263.016205 385.570984,262.994720 
	C393.015167,262.977875 396.974152,258.988770 396.995605,251.501556 
	C397.015625,244.511993 396.999908,237.522339 396.999908,229.546509 
M533.245972,290.030579 
	C528.330261,291.817780 525.217957,295.294250 525.080750,300.511017 
	C524.818115,310.498749 524.727417,320.509064 525.116577,330.488525 
	C525.320740,335.724731 529.042297,340.415863 535.313232,340.118774 
	C544.953125,339.662048 554.645447,339.666962 564.287354,340.101440 
	C572.276001,340.461395 575.365784,337.031555 575.867188,328.861938 
	C576.437622,319.568604 576.120117,310.211243 575.957642,300.885712 
	C575.842407,294.273041 571.234314,290.016785 564.600281,290.005188 
	C554.439087,289.987427 544.277832,290.003479 533.245972,290.030579 
M615.000183,158.501831 
	C615.000122,163.829010 615.305359,169.177948 614.927490,174.478195 
	C614.380676,182.147797 617.960022,185.351761 625.827148,185.860764 
	C634.945007,186.450684 644.136475,186.204285 653.284729,185.936188 
	C661.600098,185.692490 665.551697,180.162003 665.136963,173.438538 
	C664.584595,164.483017 665.013489,155.467712 664.996216,146.478165 
	C664.983398,139.805801 660.846313,135.188538 654.237915,135.054169 
	C644.419983,134.854553 634.591248,134.840302 624.774658,135.069092 
	C619.729919,135.186661 614.241638,139.207672 614.909241,145.028168 
	C615.380310,149.135971 615.000183,153.341415 615.000183,158.501831 
M464.491486,134.999954 
	C458.673859,135.000305 452.854065,134.900955 447.039246,135.028397 
	C440.945190,135.161942 436.147278,139.156509 436.057007,144.476334 
	C435.876587,155.111221 435.820892,165.755890 436.089203,176.387054 
	C436.201660,180.843338 438.763733,184.586121 443.402954,184.881287 
	C454.261627,185.572098 465.217316,186.390503 476.027802,185.637085 
	C483.999146,185.081528 486.372620,181.718033 486.074799,173.155838 
	C485.745636,163.692871 485.933990,154.208954 486.031372,144.735535 
	C486.071198,140.860321 484.775757,137.502426 481.006042,136.686813 
	C475.947876,135.592422 470.669830,135.514343 464.491486,134.999954 
M397.000061,300.803467 
	C396.901520,293.374603 393.622620,290.061920 386.111816,290.014893 
	C376.445709,289.954346 366.778931,289.977234 357.112549,290.008118 
	C350.611053,290.028900 347.029724,293.591766 347.009125,300.068939 
	C346.976807,310.235291 346.988739,320.401855 347.005219,330.568268 
	C347.014954,336.571899 350.349792,339.980896 356.244232,339.993073 
	C366.577301,340.014435 376.910461,340.004272 387.243561,339.996613 
	C393.172211,339.992188 396.952362,336.261475 396.985901,330.235748 
	C397.038757,320.736267 397.000061,311.236237 397.000061,300.803467 
M485.999603,319.491028 
	C485.999573,313.170959 486.012115,306.850830 485.996063,300.530792 
	C485.978607,293.663422 482.677979,290.118011 475.848785,290.032257 
	C466.037598,289.909058 456.223175,289.940338 446.411133,290.022491 
	C440.266754,290.073914 436.060150,294.335754 436.018280,300.509277 
	C435.950562,310.487885 435.956848,320.467529 436.016663,330.446259 
	C436.051056,336.182434 439.843109,339.953003 445.596832,339.983032 
	C456.074554,340.037720 466.552826,340.015442 477.030792,339.991669 
	C481.751465,339.980957 485.759888,336.223816 485.965576,331.461426 
	C486.123322,327.809204 485.998657,324.144806 485.999603,319.491028 
z" data-index="10" style="opacity: 1;"></path>
<path fill="#8142D6" opacity="1.000000" stroke="none" d="
M441.000000,96.999977 
	C396.539978,96.999977 352.579956,96.999977 307.528900,96.999977 
	C308.046692,84.783890 307.595459,72.801109 309.320343,61.140224 
	C311.023407,49.626705 324.085052,39.667984 336.476624,39.979565 
	C341.451111,40.104645 346.431335,40.000156 351.750793,40.000156 
	C352.786377,50.332119 355.788055,59.652332 363.070099,67.049263 
	C370.733765,74.833908 379.941650,79.363693 391.008575,78.778259 
	C392.714294,78.688042 394.268738,75.738708 395.893127,74.111626 
	C394.008240,72.408073 392.253174,69.415405 390.217346,69.210320 
	C377.070831,67.886047 367.262421,60.483116 363.618866,48.058891 
	C362.939026,45.740761 363.054535,43.189404 362.763367,40.360634 
	C397.561676,40.360634 431.954559,40.360634 466.808319,40.360634 
	C466.742401,48.631405 469.222321,56.131306 474.288116,62.882729 
	C482.185608,73.408104 492.408356,78.963646 505.669128,79.073235 
	C509.477905,79.104706 510.768494,77.052208 510.903198,74.022652 
	C511.039368,70.959991 508.999054,69.596085 506.040497,68.946030 
	C501.007324,67.840149 495.697021,67.083221 491.153259,64.854408 
	C481.999695,60.364376 476.257172,49.329834 477.471344,40.231628 
	C511.182037,40.231628 544.922241,40.231628 578.555359,40.231628 
	C579.684265,58.692268 588.582703,71.221687 605.886230,77.290260 
	C609.502380,78.558495 613.582764,78.654221 617.474915,78.937393 
	C620.733459,79.174469 623.398560,77.171974 622.711731,74.098824 
	C622.264221,72.096428 619.326782,69.432648 617.274475,69.212494 
	C607.097290,68.120819 598.346313,64.668320 593.175415,55.462868 
	C590.711548,51.076538 589.625427,45.916348 587.521912,40.000690 
	C590.943604,40.000690 592.714844,40.000690 594.486023,40.000687 
	C619.646790,40.000679 644.814331,40.350349 669.965515,39.859657 
	C683.431213,39.596943 699.166748,49.613998 700.008972,66.149223 
	C700.520874,76.199059 700.975647,86.251801 701.489441,96.999977 
	C614.310913,96.999977 527.905457,96.999977 441.000000,96.999977 
z" data-index="11"></path>
<path fill="#8142D6" opacity="1.000000" stroke="none" d="
M735.798767,212.399323 
	C738.127075,222.139969 740.146973,231.524582 742.439392,240.842178 
	C750.239258,272.544312 758.300842,304.183502 765.844727,335.945923 
	C767.235229,341.800171 767.745056,348.290253 766.788025,354.182587 
	C765.040283,364.944031 749.949890,373.174011 741.059387,373.050110 
	C727.401978,372.859772 713.739929,373.000061 699.360840,373.000061 
	C699.977478,371.637939 700.206543,370.387512 700.941406,369.623718 
	C708.457336,361.812042 710.982422,352.207764 710.986328,341.745270 
	C711.013306,268.600861 711.000549,195.456436 711.000549,122.312019 
	C711.000549,120.533531 711.000549,118.755043 711.000549,116.976555 
	C711.352051,116.913727 711.703613,116.850891 712.055115,116.788063 
	C719.908508,148.529572 727.761841,180.271072 735.798767,212.399323 
z" data-index="12"></path>
<path fill="#8142D5" opacity="1.000000" stroke="none" d="
M580.000000,563.959167 
	C570.866089,563.959167 562.232178,563.959167 553.301758,563.959167 
	C553.301758,579.058533 553.301758,593.783264 553.301758,608.898071 
	C569.710205,608.898071 585.975769,608.898071 602.619263,608.898071 
	C602.619263,615.321533 602.619263,621.368042 602.619263,627.788818 
	C586.351257,627.788818 570.081726,627.788818 553.407837,627.788818 
	C553.407837,643.202148 553.407837,658.256958 553.407837,674.040833 
	C555.009094,674.040833 556.763123,674.040833 558.517151,674.040833 
	C575.514954,674.040894 592.514893,674.186218 609.509216,673.943420 
	C614.005310,673.879211 615.402710,675.357117 615.071289,679.680481 
	C614.744507,683.943359 614.999939,688.250977 614.999939,692.762329 
	C586.576172,692.762329 558.644287,692.762329 530.355713,692.762329 
	C530.355713,643.696899 530.355713,594.649048 530.355713,545.299683 
	C558.417114,545.299683 586.466614,545.299683 614.990356,545.299683 
	C614.990356,550.594543 614.973083,555.716736 614.996643,560.838867 
	C615.011719,564.106934 612.739990,563.965088 610.496338,563.962769 
	C600.497559,563.952271 590.498779,563.958801 580.000000,563.959167 
z" data-index="13"></path>
<path fill="#8142D6" opacity="1.000000" stroke="none" d="
M881.300781,692.913940 
	C880.555298,692.116699 880.046936,691.381226 880.046082,690.645203 
	C880.007080,656.018311 880.012146,621.391357 880.012146,586.382324 
	C887.240479,586.382324 894.291077,586.382324 901.948730,586.382324 
	C901.948730,590.975830 901.948730,595.663757 901.948730,601.685303 
	C908.547791,594.154053 915.249329,588.930908 923.706909,586.779358 
	C938.965027,582.897827 953.775513,583.640137 966.363037,594.174988 
	C972.320007,599.160522 975.625244,606.385559 976.924500,614.151245 
	C977.651062,618.493958 977.933777,622.954651 977.954224,627.364258 
	C978.054565,648.997864 977.999756,670.632141 977.999756,692.632690 
	C970.393311,692.632690 963.010559,692.632690 954.999756,692.632690 
	C954.999756,690.896057 954.999817,689.128906 954.999817,687.361816 
	C954.999878,668.378174 954.979187,649.394409 955.009216,630.410828 
	C955.023071,621.700684 953.582275,613.475037 945.239441,608.802734 
	C935.305786,603.239441 925.349976,603.788025 915.606934,609.872314 
	C905.246521,616.342163 902.383545,626.543274 902.106750,637.615662 
	C901.694885,654.091187 902.000000,670.584595 902.000000,687.070435 
	C902.000000,688.868591 902.000000,690.666809 902.000000,692.975403 
	C894.986694,692.975403 888.380676,692.975403 881.300781,692.913940 
z" data-index="14" style="opacity: 1;"></path>
<path fill="#8142D6" opacity="1.000000" stroke="none" d="
M357.274292,587.025940 
	C373.281860,582.948486 388.354675,583.388916 401.311981,594.132996 
	C407.308929,599.105591 410.566620,606.349426 411.918243,614.090271 
	C412.675293,618.425964 412.933716,622.894470 412.954163,627.305237 
	C413.054565,648.948425 412.999695,670.592346 412.999695,692.617676 
	C405.423370,692.617676 398.038391,692.617676 389.999725,692.617676 
	C389.999725,690.925232 389.999695,689.161194 389.999695,687.397156 
	C389.999756,668.408691 389.978546,649.420105 390.009491,630.431702 
	C390.023651,621.721008 388.581451,613.496460 380.250427,608.811951 
	C370.316467,603.226013 360.355499,603.794556 350.612579,609.869690 
	C340.246216,616.333618 337.382385,626.541199 337.106415,637.617798 
	C336.695801,654.097595 336.999969,670.595154 336.999939,687.085144 
	C336.999939,688.878296 336.999939,690.671448 336.999939,692.729553 
	C329.646576,692.729553 322.714020,692.729553 315.389160,692.729553 
	C315.389160,657.442139 315.389160,622.071106 315.389160,586.349365 
	C322.311218,586.349365 329.362030,586.349365 336.804413,586.349365 
	C336.804413,590.958679 336.804413,595.557190 336.804413,599.774536 
	C343.575226,595.484497 350.222351,591.272827 357.274292,587.025940 
z" data-index="15"></path>
<path fill="#8142D6" opacity="1.000000" stroke="none" d="
M632.972656,588.183228 
	C633.431885,587.186890 633.916565,586.089355 634.418823,586.081299 
	C641.403809,585.968506 648.391296,586.004944 655.629150,586.004944 
	C664.508057,615.848328 673.338745,645.529663 682.459167,676.184875 
	C691.264160,645.636658 699.793152,616.046326 708.391052,586.216675 
	C716.032166,586.216675 723.824646,586.216675 731.998047,586.216675 
	C720.483521,621.893616 709.031128,657.377930 697.570740,692.886963 
	C687.490845,692.886963 677.675964,692.886963 667.307983,692.886963 
	C655.902039,658.205994 644.454163,623.397278 632.972656,588.183228 
z" data-index="16"></path>

<path fill="#000000" opacity="1.000000" stroke="none" d="
M256.260284,609.767944 
	C263.440155,614.616516 266.001312,621.528931 267.284943,629.682983 
	C246.068512,629.682983 225.316467,629.682983 203.933319,629.682983 
	C205.276764,619.623230 210.707336,612.414795 219.342163,608.060974 
	C231.619904,601.870361 244.074234,601.281982 256.260284,609.767944 
z" data-index="18" style="opacity: 1; visibility: hidden;"></path>

<path fill="#000000" opacity="1.000000" stroke="none" d="
M569.403320,184.808411 
	C560.770935,185.300232 552.529175,185.805283 544.281677,185.932220 
	C540.373718,185.992340 536.378662,185.696548 532.559021,184.905396 
	C527.352539,183.826965 525.063171,179.977783 525.022644,174.846603 
	C524.947693,165.354599 524.924988,155.860748 525.026428,146.369232 
	C525.100464,139.445984 529.496033,135.092407 536.438660,135.022568 
	C545.430725,134.932098 554.424377,134.985947 563.417358,135.004303 
	C571.317444,135.020432 575.752747,139.016678 575.945374,146.844437 
	C576.170654,155.998413 576.236755,165.171234 575.890808,174.317703 
	C575.730286,178.560852 574.469727,182.783661 569.403320,184.808411 
z" data-index="20" style="opacity: 1; visibility: hidden;"></path>

<path fill="#000000" opacity="1.000000" stroke="none" d="
M485.999695,224.211838 
	C485.999634,234.185272 486.032990,243.684875 485.987549,253.184113 
	C485.958374,259.281799 482.255676,262.964203 476.137756,262.988495 
	C465.971832,263.028839 455.805389,263.037872 445.639618,262.984253 
	C439.820282,262.953583 436.054230,259.233154 436.017029,253.457504 
	C435.954742,243.791794 435.997406,234.125381 436.000214,224.459274 
	C436.002380,217.093582 438.312714,212.974808 445.386597,212.501541 
	C456.069885,211.786789 466.882538,212.321869 477.596252,213.010208 
	C483.701935,213.402496 487.010010,217.854752 485.999695,224.211838 
z" data-index="22" style="opacity: 1; visibility: hidden;"></path>

<path fill="#000000" opacity="1.000000" stroke="none" d="
M396.999908,230.039612 
	C396.999908,237.522339 397.015625,244.511993 396.995605,251.501556 
	C396.974152,258.988770 393.015167,262.977875 385.570984,262.994720 
	C376.085114,263.016205 366.599091,263.022736 357.113281,262.991974 
	C350.624146,262.970917 347.032104,259.406647 347.009186,252.955933 
	C346.975525,243.470139 347.000671,233.984131 347.000977,224.498215 
	C347.001251,215.811539 348.006165,213.335587 356.393707,212.547882 
	C366.879456,211.563156 377.600830,211.890640 388.114685,212.832703 
	C394.859467,213.437057 396.989166,217.250153 396.999542,224.054642 
	C397.002319,225.885269 396.999939,227.715881 396.999908,230.039612 
z" data-index="24" style="opacity: 1; visibility: hidden;"></path>

<path fill="#000000" opacity="1.000000" stroke="none" d="
M615.000183,158.002548 
	C615.000183,153.341415 615.380310,149.135971 614.909241,145.028168 
	C614.241638,139.207672 619.729919,135.186661 624.774658,135.069092 
	C634.591248,134.840302 644.419983,134.854553 654.237915,135.054169 
	C660.846313,135.188538 664.983398,139.805801 664.996216,146.478165 
	C665.013489,155.467712 664.584595,164.483017 665.136963,173.438538 
	C665.551697,180.162003 661.600098,185.692490 653.284729,185.936188 
	C644.136475,186.204285 634.945007,186.450684 625.827148,185.860764 
	C617.960022,185.351761 614.380676,182.147797 614.927490,174.478195 
	C615.305359,169.177948 615.000122,163.829010 615.000183,158.002548 
z" data-index="26" style="opacity: 1; visibility: hidden;"></path>

<path fill="#000000" opacity="1.000000" stroke="none" d="
M397.000092,301.269958 
	C397.000061,311.236237 397.038757,320.736267 396.985901,330.235748 
	C396.952362,336.261475 393.172211,339.992188 387.243561,339.996613 
	C376.910461,340.004272 366.577301,340.014435 356.244232,339.993073 
	C350.349792,339.980896 347.014954,336.571899 347.005219,330.568268 
	C346.988739,320.401855 346.976807,310.235291 347.009125,300.068939 
	C347.029724,293.591766 350.611053,290.028900 357.112549,290.008118 
	C366.778931,289.977234 376.445709,289.954346 386.111816,290.014893 
	C393.622620,290.061920 396.901520,293.374603 397.000092,301.269958 
z" data-index="28" style="opacity: 1; visibility: hidden;"></path>

</svg>